<svg width="500" height="164" viewBox="0 0 500 164" fill="none" xmlns="http://www.w3.org/2000/svg">
<path d="M82.8264 34.6848C83.0102 34.4661 83.2812 34.3398 83.5668 34.3398H108.51C109.044 34.3398 109.477 34.7728 109.477 35.3069V64.5304C109.477 65.4461 110.631 65.849 111.201 65.1321L135.383 34.7052C135.566 34.4744 135.845 34.3398 136.14 34.3398H160.896C161.43 34.3398 161.863 34.7728 161.863 35.3069V110.029C161.863 110.563 161.43 110.996 160.896 110.996H136.423C135.888 110.996 135.455 110.563 135.455 110.029V81.2944C135.455 80.3787 134.301 79.9758 133.731 80.6927L109.938 110.631C109.755 110.862 109.476 110.996 109.181 110.996H84.0368C83.5027 110.996 83.0698 110.563 83.0698 110.029V81.0697C83.0698 80.1539 81.9153 79.751 81.3455 80.468L57.377 110.627C57.1936 110.858 56.9149 110.993 56.62 110.993L20.7777 110.998C19.9558 110.998 19.5084 110.038 20.0372 109.409L82.8264 34.6848Z" fill="#0466C8"/>
<path d="M436.094 110.181C431.284 110.181 426.972 109.364 423.16 107.73C419.347 106.006 416.306 103.555 414.037 100.378C411.859 97.1102 410.77 93.1617 410.77 88.5324C410.77 83.9032 411.859 80.0455 414.037 76.9593C416.306 73.7823 419.393 71.4223 423.296 69.8792C427.29 68.2454 431.828 67.4284 436.911 67.4284H455.428V63.6161C455.428 60.4392 454.43 57.8522 452.433 55.8553C450.436 53.7676 447.259 52.7237 442.902 52.7237C438.636 52.7237 435.459 53.7222 433.371 55.7191C431.284 57.6253 429.922 60.1215 429.287 63.2076L413.493 57.8976C414.582 54.4484 416.306 51.3168 418.667 48.5029C421.117 45.5983 424.34 43.2837 428.333 41.559C432.418 39.7436 437.365 38.8359 443.174 38.8359C452.07 38.8359 459.104 41.0598 464.278 45.5075C469.452 49.9552 472.039 56.3999 472.039 64.8415V90.0301C472.039 92.7532 473.31 94.1148 475.851 94.1148H481.298V108.275H469.861C466.502 108.275 463.734 107.458 461.555 105.824C459.377 104.19 458.288 102.012 458.288 99.2887V99.1525H455.701C455.338 100.242 454.521 101.694 453.25 103.509C451.979 105.234 449.982 106.777 447.259 108.139C444.536 109.5 440.814 110.181 436.094 110.181ZM439.09 96.2933C443.901 96.2933 447.804 94.9771 450.799 92.3448C453.885 89.6217 455.428 86.0363 455.428 81.5885V80.227H438.137C434.96 80.227 432.464 80.9078 430.648 82.2693C428.833 83.6309 427.925 85.537 427.925 87.9878C427.925 90.4386 428.878 92.4355 430.784 93.9786C432.69 95.5217 435.459 96.2933 439.09 96.2933Z" fill="#0F192E"/>
<path d="M370.91 108.274V40.7411H387.793V48.3657H390.244C391.243 45.6426 392.876 43.6457 395.146 42.3749C397.506 41.1041 400.229 40.4688 403.315 40.4688H411.484V55.7181H403.043C398.686 55.7181 395.1 56.8981 392.286 59.2581C389.473 61.5274 388.066 65.0674 388.066 69.8782V108.274H370.91Z" fill="#0F192E"/>
<path d="M302.53 135.502V120.525H339.292C341.833 120.525 343.104 119.163 343.104 116.44V99.421H340.653C339.927 100.964 338.792 102.507 337.249 104.05C335.706 105.593 333.618 106.864 330.986 107.863C328.354 108.861 324.995 109.36 320.911 109.36C315.646 109.36 311.017 108.18 307.023 105.82C303.12 103.369 300.079 100.011 297.901 95.7448C295.722 91.4786 294.633 86.5771 294.633 81.0401V40.7383H311.788V79.6786C311.788 84.7617 313.014 88.574 315.465 91.1155C318.006 93.6571 321.591 94.9279 326.221 94.9279C331.485 94.9279 335.57 93.2033 338.475 89.754C341.379 86.214 342.832 81.3124 342.832 75.0493V40.7383H359.987V120.253C359.987 124.882 358.626 128.558 355.902 131.281C353.179 134.095 349.549 135.502 345.01 135.502H302.53Z" fill="#0F192E"/>
<path d="M188.201 108.27V40.7377H205.084V48.09H207.535C208.715 45.8208 210.667 43.8692 213.39 42.2354C216.113 40.5108 219.698 39.6484 224.146 39.6484C228.957 39.6484 232.815 40.6015 235.719 42.5077C238.624 44.3231 240.848 46.7285 242.391 49.7239H244.842C246.385 46.8193 248.563 44.4139 251.377 42.5077C254.191 40.6015 258.185 39.6484 263.359 39.6484C267.534 39.6484 271.301 40.5561 274.659 42.3715C278.109 44.0962 280.832 46.7739 282.829 50.4047C284.916 53.9447 285.96 58.4378 285.96 63.884V108.27H268.805V65.1094C268.805 61.3878 267.852 58.6193 265.946 56.8039C264.039 54.8978 261.362 53.9447 257.912 53.9447C254.009 53.9447 250.969 55.2155 248.79 57.757C246.702 60.2078 245.658 63.7478 245.658 68.3771V108.27H228.503V65.1094C228.503 61.3878 227.55 58.6193 225.644 56.8039C223.738 54.8978 221.06 53.9447 217.611 53.9447C213.708 53.9447 210.667 55.2155 208.488 57.757C206.401 60.2078 205.357 63.7478 205.357 68.3771V108.27H188.201Z" fill="#0F192E"/>
</svg>
